# xmcd CD database file
#
# Track frame offsets:
#	150
#	22635
#	40852
#	63364
#
# Disc length: 1086 seconds
#
# Revision: 1
# Processed by: cddbd v1.5.1PL2 Copyright (c) Steve Scherf et al.
# Submitted via: CDex 1.60beta1-cs1
#
DISCID=23043c04
DTITLE=知念里奈 - PINCH～Love Me Deeper～
DYEAR=1997
DGENRE=JPop
TTITLE0=PINCH～Love Me Deeper～
TTITLE1=PRIDE+JOY
TTITLE2=PINCH～Love Me Deeper～ (Backing Track)
TTITLE3=PRIDE+JOY (Backing Track)
EXTD=YEAR: 1997
EXTT0=
EXTT1=
EXTT2=
EXTT3=
PLAYORDER=
